<svg width="40" height="39" viewBox="0 0 40 39" fill="none" xmlns="http://www.w3.org/2000/svg">
<g filter="url(#filter0_d_36_897)">
<ellipse cx="19.9247" cy="15.5" rx="15.9247" ry="15.5" fill="#FEFBFA"/>
</g>
<g clip-path="url(#clip0_36_897)">
<path d="M13.2342 10L17.4603 5.298C17.6392 5.1 17.8738 5 18.1085 5C18.6595 5 19.0254 5.505 19.0254 6.029C19.0254 6.279 18.9427 6.533 18.7566 6.74L15.826 10H13.2342ZM24.0228 10H26.6145L22.3885 5.298C22.2096 5.1 21.9749 5 21.7403 5C21.1892 5 20.8234 5.505 20.8234 6.029C20.8234 6.279 20.9061 6.533 21.0922 6.74L24.0228 10ZM9.13672 12V14H9.71476C10.1948 14 10.6326 14.304 10.8439 14.784L14.5306 25H25.3182L29.0058 14.786C29.2153 14.305 29.6549 14 30.1349 14H30.7121V12H9.13672Z" fill="black"/>
</g>
<defs>
<filter id="filter0_d_36_897" x="0" y="0" width="39.8491" height="39" filterUnits="userSpaceOnUse" color-interpolation-filters="sRGB">
<feFlood flood-opacity="0" result="BackgroundImageFix"/>
<feColorMatrix in="SourceAlpha" type="matrix" values="0 0 0 0 0 0 0 0 0 0 0 0 0 0 0 0 0 0 127 0" result="hardAlpha"/>
<feOffset dy="4"/>
<feGaussianBlur stdDeviation="2"/>
<feColorMatrix type="matrix" values="0 0 0 0 0 0 0 0 0 0 0 0 0 0 0 0 0 0 0.25 0"/>
<feBlend mode="normal" in2="BackgroundImageFix" result="effect1_dropShadow_36_897"/>
<feBlend mode="normal" in="SourceGraphic" in2="effect1_dropShadow_36_897" result="shape"/>
</filter>
<clipPath id="clip0_36_897">
<rect width="21.5753" height="24" fill="white" transform="translate(9.13672 3)"/>
</clipPath>
</defs>
</svg>
