<svg width="19" height="19" viewBox="0 0 19 19" fill="none" xmlns="http://www.w3.org/2000/svg">
<path d="M9.49902 2.37485H3.95736C3.53743 2.37485 3.1347 2.54166 2.83777 2.83859C2.54084 3.13553 2.37402 3.53825 2.37402 3.95818V15.0415C2.37402 15.4614 2.54084 15.8642 2.83777 16.1611C3.1347 16.458 3.53743 16.6248 3.95736 16.6248H15.0407C15.4606 16.6248 15.8633 16.458 16.1603 16.1611C16.4572 15.8642 16.624 15.4614 16.624 15.0415V9.49985" stroke="#094497" stroke-width="1.28" stroke-linecap="round" stroke-linejoin="round"/>
<path d="M14.5458 2.07794C14.8608 1.76299 15.2879 1.58606 15.7333 1.58606C16.1787 1.58606 16.6059 1.76299 16.9208 2.07794C17.2358 2.39288 17.4127 2.82004 17.4127 3.26544C17.4127 3.71084 17.2358 4.13799 16.9208 4.45294L9.78552 11.589C9.59754 11.7768 9.36531 11.9143 9.11023 11.9888L6.83577 12.6538C6.76765 12.6737 6.69544 12.6749 6.6267 12.6573C6.55796 12.6397 6.49521 12.6039 6.44504 12.5537C6.39486 12.5035 6.3591 12.4408 6.34149 12.3721C6.32387 12.3033 6.32507 12.2311 6.34493 12.163L7.00993 9.88852C7.08477 9.63364 7.22252 9.40169 7.41052 9.21402L14.5458 2.07794Z" stroke="#094497" stroke-width="1.28" stroke-linecap="round" stroke-linejoin="round"/>
</svg>
