<svg width="22" height="22" viewBox="0 0 22 22" fill="none" xmlns="http://www.w3.org/2000/svg">
<path d="M4.58369 5.41667H3.75036V3.75H8.25036H8.33369V3.66667V2.83333H13.667V3.66667V3.75H13.7504H18.2504V5.41667H17.417H17.3337V5.5V17.4167C17.3337 17.8986 17.1632 18.3092 16.82 18.653C16.4768 18.9968 16.0663 19.1673 15.5838 19.1667H15.5837H6.41702C5.93511 19.1667 5.52482 18.9962 5.18161 18.653C4.83843 18.3098 4.66763 17.8992 4.66702 17.4167C4.66702 17.4166 4.66702 17.4166 4.66702 17.4166L4.66702 5.5V5.41667H4.58369ZM15.667 5.5V5.41667H15.5837H6.41702H6.33369V5.5V17.4167V17.5H6.41702H15.5837H15.667V17.4167V5.5ZM10.0004 7.41667V15.5H8.33369V7.41667H10.0004ZM13.667 7.41667V15.5H12.0004V7.41667H13.667Z" fill="#DC1F1F" stroke="white" stroke-width="0.166667"/>
</svg>
