<svg width="25" height="30" viewBox="0 0 25 30" fill="none" xmlns="http://www.w3.org/2000/svg">
<path d="M22.125 21.375V14.225C21.4375 14.3625 20.75 14.5 20.0625 14.5H19.375V22.75H5.625V13.125C5.625 9.275 8.65 6.25 12.5 6.25C12.6375 4.4625 13.4625 2.95 14.5625 1.7125C14.15 1.1625 13.325 0.75 12.5 0.75C10.9875 0.75 9.75 1.9875 9.75 3.5V3.9125C5.625 5.15 2.875 8.8625 2.875 13.125V21.375L0.125 24.125V25.5H24.875V24.125L22.125 21.375ZM9.75 26.875C9.75 28.3875 10.9875 29.625 12.5 29.625C14.0125 29.625 15.25 28.3875 15.25 26.875H9.75ZM24.875 6.9375C24.875 9.55 22.675 11.75 20.0625 11.75C17.45 11.75 15.25 9.55 15.25 6.9375C15.25 4.325 17.45 2.125 20.0625 2.125C22.675 2.125 24.875 4.325 24.875 6.9375Z" fill="#094497"/>
</svg>
