<svg width="26" height="24" viewBox="0 0 26 24" fill="none" xmlns="http://www.w3.org/2000/svg">
<path d="M9.91572 7L9.70869 7.47905C9.37445 8.25243 9.29044 9.10637 9.46783 9.92729C9.7385 11.1799 10.7646 12.1473 12.0611 12.3723L12.1752 12.3921C12.5864 12.4635 13.0073 12.4635 13.4185 12.3921L13.5327 12.3723C14.8292 12.1473 15.8553 11.1799 16.1259 9.92729C16.3033 9.10637 16.2193 8.25243 15.8851 7.47905L15.678 7" stroke="#302F3C" stroke-width="1.5" stroke-linecap="round"/>
<path d="M21.2569 15.1432C20.6702 17.6506 18.6647 19.6206 16.0929 20.2254C13.9316 20.7336 11.6641 20.7336 9.50274 20.2254C6.93101 19.6206 4.92551 17.6506 4.33881 15.1432C3.81461 12.9029 3.9421 10.565 4.70702 8.39108L4.82066 8.06811C5.66232 5.6761 7.76489 3.91037 10.3223 3.44791L11.0226 3.32126C12.196 3.10906 13.3997 3.10906 14.5731 3.32126L15.2734 3.4479C17.8308 3.91037 19.9334 5.6761 20.7751 8.06813L20.8887 8.39109C21.6536 10.565 21.7811 12.9029 21.2569 15.1432Z" stroke="#302F3C" stroke-width="1.5"/>
</svg>
