<svg width="16" height="20" viewBox="0 0 16 20" fill="none" xmlns="http://www.w3.org/2000/svg">
<path d="M1.17383 17.1115C1.17383 14.6984 2.87115 12.643 5.17787 12.2627L5.38565 12.2284C7.23275 11.9239 9.11491 11.9239 10.962 12.2284L11.1698 12.2627C13.4765 12.643 15.1738 14.6984 15.1738 17.1115C15.1738 18.1545 14.3553 19 13.3457 19H3.00196C1.99231 19 1.17383 18.1545 1.17383 17.1115Z" stroke="#302F3C" stroke-width="1.5"/>
<path d="M12.2572 4.9375C12.2572 7.11212 10.429 8.875 8.17385 8.875C5.91869 8.875 4.09052 7.11212 4.09052 4.9375C4.09052 2.76288 5.91869 1 8.17385 1C10.429 1 12.2572 2.76288 12.2572 4.9375Z" stroke="#302F3C" stroke-width="1.5"/>
</svg>
